<mxfile host="app.diagrams.net" modified="2023-09-22T11:23:22.915Z" agent="Mozilla/5.0 (Windows NT 10.0; Win64; x64) AppleWebKit/537.36 (KHTML, like Gecko) Chrome/117.0.0.0 Safari/537.36" etag="Mg4QTNXn09b5Z1eZ5L9f" version="21.7.5" type="google">
  <diagram name="Page-1" id="iM4H8nJYdGxcwYj0N4kp">
    <mxGraphModel dx="17104" dy="11578" grid="1" gridSize="10" guides="1" tooltips="1" connect="1" arrows="1" fold="1" page="1" pageScale="1" pageWidth="850" pageHeight="1100" math="0" shadow="0">
      <root>
        <mxCell id="0" />
        <mxCell id="1" parent="0" />
        <mxCell id="9Cuw3_5VtuvsZnifVFAw-2" value="MISSION ID CREATION" style="shape=table;childLayout=tableLayout;startSize=30;collapsible=0;recursiveResize=0;expand=0;fontStyle=1" parent="1" vertex="1">
          <mxGeometry x="-15820" y="-10880" width="820" height="1040" as="geometry" />
        </mxCell>
        <mxCell id="9Cuw3_5VtuvsZnifVFAw-3" value="" style="shape=tableRow;horizontal=0;swimlaneHead=0;swimlaneBody=0;top=0;left=0;strokeColor=inherit;bottom=0;right=0;dropTarget=0;fontStyle=0;fillColor=none;points=[[0,0.5],[1,0.5]];portConstraint=eastwest;startSize=0;collapsible=0;recursiveResize=0;expand=0;" parent="9Cuw3_5VtuvsZnifVFAw-2" vertex="1">
          <mxGeometry y="30" width="820" height="1010" as="geometry" />
        </mxCell>
        <mxCell id="9Cuw3_5VtuvsZnifVFAw-4" value="BSS" style="swimlane;swimlaneHead=0;swimlaneBody=0;fontStyle=1;strokeColor=inherit;connectable=0;fillColor=none;startSize=40;collapsible=0;recursiveResize=0;expand=0;" parent="9Cuw3_5VtuvsZnifVFAw-3" vertex="1">
          <mxGeometry width="200" height="1010" as="geometry">
            <mxRectangle width="200" height="1010" as="alternateBounds" />
          </mxGeometry>
        </mxCell>
        <mxCell id="9Cuw3_5VtuvsZnifVFAw-5" value="" style="swimlane;swimlaneHead=0;swimlaneBody=0;fontStyle=0;strokeColor=inherit;connectable=0;fillColor=none;startSize=0;collapsible=0;recursiveResize=0;expand=0;" parent="9Cuw3_5VtuvsZnifVFAw-4" vertex="1">
          <mxGeometry x="-240" y="10" width="700" height="270" as="geometry">
            <mxRectangle width="700" height="270" as="alternateBounds" />
          </mxGeometry>
        </mxCell>
        <mxCell id="9Cuw3_5VtuvsZnifVFAw-6" value="&lt;b&gt;BSS&lt;/b&gt;" style="rounded=0;whiteSpace=wrap;html=1;fillColor=#bac8d3;strokeColor=#23445d;" parent="9Cuw3_5VtuvsZnifVFAw-5" vertex="1">
          <mxGeometry x="240" y="-10" width="200" height="40" as="geometry" />
        </mxCell>
        <mxCell id="9Cuw3_5VtuvsZnifVFAw-67" value="" style="edgeStyle=orthogonalEdgeStyle;rounded=0;orthogonalLoop=1;jettySize=auto;html=1;" parent="9Cuw3_5VtuvsZnifVFAw-5" source="9Cuw3_5VtuvsZnifVFAw-65" edge="1">
          <mxGeometry relative="1" as="geometry">
            <mxPoint x="315" y="120" as="targetPoint" />
          </mxGeometry>
        </mxCell>
        <mxCell id="9Cuw3_5VtuvsZnifVFAw-65" value="Start" style="strokeWidth=2;html=1;shape=mxgraph.flowchart.terminator;whiteSpace=wrap;" parent="9Cuw3_5VtuvsZnifVFAw-5" vertex="1">
          <mxGeometry x="260" y="40" width="110" height="40" as="geometry" />
        </mxCell>
        <mxCell id="9Cuw3_5VtuvsZnifVFAw-66" style="edgeStyle=orthogonalEdgeStyle;rounded=0;orthogonalLoop=1;jettySize=auto;html=1;exitX=0.5;exitY=1;exitDx=0;exitDy=0;exitPerimeter=0;" parent="9Cuw3_5VtuvsZnifVFAw-5" source="9Cuw3_5VtuvsZnifVFAw-65" target="9Cuw3_5VtuvsZnifVFAw-65" edge="1">
          <mxGeometry relative="1" as="geometry" />
        </mxCell>
        <mxCell id="9Cuw3_5VtuvsZnifVFAw-68" value="Share&lt;br style=&quot;border-color: var(--border-color);&quot;&gt;the Template with&lt;br style=&quot;border-color: var(--border-color);&quot;&gt;Operations team to fill&lt;br style=&quot;border-color: var(--border-color);&quot;&gt;the details" style="rounded=0;whiteSpace=wrap;html=1;" parent="9Cuw3_5VtuvsZnifVFAw-5" vertex="1">
          <mxGeometry x="255" y="105" width="120" height="60" as="geometry" />
        </mxCell>
        <mxCell id="9Cuw3_5VtuvsZnifVFAw-8" style="edgeStyle=orthogonalEdgeStyle;rounded=0;orthogonalLoop=1;jettySize=auto;html=1;" parent="9Cuw3_5VtuvsZnifVFAw-4" source="9Cuw3_5VtuvsZnifVFAw-10" edge="1">
          <mxGeometry relative="1" as="geometry">
            <mxPoint x="310" y="480" as="targetPoint" />
          </mxGeometry>
        </mxCell>
        <mxCell id="9Cuw3_5VtuvsZnifVFAw-9" value="Yes" style="edgeLabel;html=1;align=center;verticalAlign=middle;resizable=0;points=[];" parent="9Cuw3_5VtuvsZnifVFAw-8" vertex="1" connectable="0">
          <mxGeometry x="-0.0244" y="-1" relative="1" as="geometry">
            <mxPoint as="offset" />
          </mxGeometry>
        </mxCell>
        <mxCell id="9Cuw3_5VtuvsZnifVFAw-10" value="Provide &lt;br&gt;access and check whether it is working &lt;br&gt;with given &lt;br&gt;credentials" style="rhombus;whiteSpace=wrap;html=1;" parent="9Cuw3_5VtuvsZnifVFAw-4" vertex="1">
          <mxGeometry x="15" y="420" width="130" height="120" as="geometry" />
        </mxCell>
        <mxCell id="9Cuw3_5VtuvsZnifVFAw-11" style="edgeStyle=orthogonalEdgeStyle;rounded=0;orthogonalLoop=1;jettySize=auto;html=1;" parent="9Cuw3_5VtuvsZnifVFAw-4" edge="1">
          <mxGeometry relative="1" as="geometry">
            <mxPoint x="230" y="490" as="targetPoint" />
            <mxPoint x="140" y="800" as="sourcePoint" />
          </mxGeometry>
        </mxCell>
        <mxCell id="9Cuw3_5VtuvsZnifVFAw-12" style="edgeStyle=orthogonalEdgeStyle;rounded=0;orthogonalLoop=1;jettySize=auto;html=1;" parent="9Cuw3_5VtuvsZnifVFAw-4" source="9Cuw3_5VtuvsZnifVFAw-10" edge="1">
          <mxGeometry relative="1" as="geometry">
            <mxPoint x="80" y="770" as="targetPoint" />
          </mxGeometry>
        </mxCell>
        <mxCell id="9Cuw3_5VtuvsZnifVFAw-13" value="No" style="edgeLabel;html=1;align=center;verticalAlign=middle;resizable=0;points=[];" parent="9Cuw3_5VtuvsZnifVFAw-12" vertex="1" connectable="0">
          <mxGeometry x="-0.25" y="1" relative="1" as="geometry">
            <mxPoint as="offset" />
          </mxGeometry>
        </mxCell>
        <mxCell id="9Cuw3_5VtuvsZnifVFAw-14" style="edgeStyle=orthogonalEdgeStyle;rounded=0;orthogonalLoop=1;jettySize=auto;html=1;entryX=0;entryY=0.5;entryDx=0;entryDy=0;exitX=0;exitY=0.5;exitDx=0;exitDy=0;" parent="9Cuw3_5VtuvsZnifVFAw-4" source="9Cuw3_5VtuvsZnifVFAw-72" target="9Cuw3_5VtuvsZnifVFAw-10" edge="1">
          <mxGeometry relative="1" as="geometry">
            <Array as="points">
              <mxPoint x="10" y="800" />
              <mxPoint x="10" y="480" />
            </Array>
            <mxPoint x="20" y="800" as="sourcePoint" />
          </mxGeometry>
        </mxCell>
        <mxCell id="9Cuw3_5VtuvsZnifVFAw-71" value="End" style="strokeWidth=2;html=1;shape=mxgraph.flowchart.terminator;whiteSpace=wrap;" parent="9Cuw3_5VtuvsZnifVFAw-4" vertex="1">
          <mxGeometry x="25" y="870" width="120" height="40" as="geometry" />
        </mxCell>
        <mxCell id="9Cuw3_5VtuvsZnifVFAw-73" style="edgeStyle=orthogonalEdgeStyle;rounded=0;orthogonalLoop=1;jettySize=auto;html=1;entryX=0.5;entryY=0;entryDx=0;entryDy=0;entryPerimeter=0;" parent="9Cuw3_5VtuvsZnifVFAw-4" source="9Cuw3_5VtuvsZnifVFAw-72" target="9Cuw3_5VtuvsZnifVFAw-71" edge="1">
          <mxGeometry relative="1" as="geometry" />
        </mxCell>
        <mxCell id="9Cuw3_5VtuvsZnifVFAw-72" value="Change the Password and Check" style="rounded=0;whiteSpace=wrap;html=1;" parent="9Cuw3_5VtuvsZnifVFAw-4" vertex="1">
          <mxGeometry x="25" y="770" width="120" height="60" as="geometry" />
        </mxCell>
        <mxCell id="9Cuw3_5VtuvsZnifVFAw-16" value="" style="swimlane;swimlaneHead=0;swimlaneBody=0;fontStyle=1;strokeColor=inherit;connectable=0;fillColor=none;startSize=40;collapsible=0;recursiveResize=0;expand=0;" parent="9Cuw3_5VtuvsZnifVFAw-3" vertex="1">
          <mxGeometry x="200" width="310" height="1010" as="geometry">
            <mxRectangle width="310" height="1010" as="alternateBounds" />
          </mxGeometry>
        </mxCell>
        <mxCell id="9Cuw3_5VtuvsZnifVFAw-18" style="edgeStyle=orthogonalEdgeStyle;rounded=0;orthogonalLoop=1;jettySize=auto;html=1;exitX=0.25;exitY=1;exitDx=0;exitDy=0;entryX=0.5;entryY=0;entryDx=0;entryDy=0;" parent="9Cuw3_5VtuvsZnifVFAw-16" source="9Cuw3_5VtuvsZnifVFAw-19" target="9Cuw3_5VtuvsZnifVFAw-27" edge="1">
          <mxGeometry relative="1" as="geometry">
            <mxPoint x="60" y="280" as="targetPoint" />
            <Array as="points">
              <mxPoint x="55" y="140" />
            </Array>
          </mxGeometry>
        </mxCell>
        <mxCell id="9Cuw3_5VtuvsZnifVFAw-19" value="Fill/Update the&lt;br style=&quot;border-color: var(--border-color);&quot;&gt;template by SPOC/ID Owner" style="rounded=0;whiteSpace=wrap;html=1;" parent="9Cuw3_5VtuvsZnifVFAw-16" vertex="1">
          <mxGeometry x="30" y="115" width="120" height="60" as="geometry" />
        </mxCell>
        <mxCell id="9Cuw3_5VtuvsZnifVFAw-20" value="" style="edgeStyle=orthogonalEdgeStyle;rounded=0;orthogonalLoop=1;jettySize=auto;html=1;" parent="9Cuw3_5VtuvsZnifVFAw-16" target="9Cuw3_5VtuvsZnifVFAw-23" edge="1">
          <mxGeometry relative="1" as="geometry">
            <mxPoint x="240" y="140" as="sourcePoint" />
          </mxGeometry>
        </mxCell>
        <mxCell id="9Cuw3_5VtuvsZnifVFAw-21" value="Yes" style="edgeLabel;html=1;align=center;verticalAlign=middle;resizable=0;points=[];" parent="9Cuw3_5VtuvsZnifVFAw-20" vertex="1" connectable="0">
          <mxGeometry x="0.1112" relative="1" as="geometry">
            <mxPoint as="offset" />
          </mxGeometry>
        </mxCell>
        <mxCell id="9Cuw3_5VtuvsZnifVFAw-22" value="" style="edgeStyle=orthogonalEdgeStyle;rounded=0;orthogonalLoop=1;jettySize=auto;html=1;" parent="9Cuw3_5VtuvsZnifVFAw-16" source="9Cuw3_5VtuvsZnifVFAw-23" target="9Cuw3_5VtuvsZnifVFAw-26" edge="1">
          <mxGeometry relative="1" as="geometry" />
        </mxCell>
        <mxCell id="9Cuw3_5VtuvsZnifVFAw-23" value="Request Approval to ID Owner" style="rounded=1;whiteSpace=wrap;html=1;" parent="9Cuw3_5VtuvsZnifVFAw-16" vertex="1">
          <mxGeometry x="180" y="200" width="120" height="60" as="geometry" />
        </mxCell>
        <mxCell id="9Cuw3_5VtuvsZnifVFAw-24" style="edgeStyle=orthogonalEdgeStyle;rounded=0;orthogonalLoop=1;jettySize=auto;html=1;entryX=0.833;entryY=0.983;entryDx=0;entryDy=0;entryPerimeter=0;" parent="9Cuw3_5VtuvsZnifVFAw-16" source="9Cuw3_5VtuvsZnifVFAw-26" target="9Cuw3_5VtuvsZnifVFAw-19" edge="1">
          <mxGeometry relative="1" as="geometry">
            <mxPoint x="130" y="180" as="targetPoint" />
          </mxGeometry>
        </mxCell>
        <mxCell id="9Cuw3_5VtuvsZnifVFAw-25" value="No" style="edgeLabel;html=1;align=center;verticalAlign=middle;resizable=0;points=[];" parent="9Cuw3_5VtuvsZnifVFAw-24" vertex="1" connectable="0">
          <mxGeometry x="-0.3106" relative="1" as="geometry">
            <mxPoint as="offset" />
          </mxGeometry>
        </mxCell>
        <mxCell id="9Cuw3_5VtuvsZnifVFAw-26" value="If Approved?" style="rhombus;whiteSpace=wrap;html=1;" parent="9Cuw3_5VtuvsZnifVFAw-16" vertex="1">
          <mxGeometry x="190" y="280" width="100" height="80" as="geometry" />
        </mxCell>
        <mxCell id="9Cuw3_5VtuvsZnifVFAw-27" value="Raise Request to provide Mission Role" style="rounded=0;whiteSpace=wrap;html=1;" parent="9Cuw3_5VtuvsZnifVFAw-16" vertex="1">
          <mxGeometry x="10" y="280" width="90" height="50" as="geometry" />
        </mxCell>
        <mxCell id="9Cuw3_5VtuvsZnifVFAw-28" style="edgeStyle=orthogonalEdgeStyle;rounded=0;orthogonalLoop=1;jettySize=auto;html=1;entryX=0.5;entryY=0;entryDx=0;entryDy=0;" parent="9Cuw3_5VtuvsZnifVFAw-16" source="9Cuw3_5VtuvsZnifVFAw-30" target="9Cuw3_5VtuvsZnifVFAw-19" edge="1">
          <mxGeometry relative="1" as="geometry">
            <Array as="points">
              <mxPoint x="300" y="120" />
              <mxPoint x="300" y="50" />
              <mxPoint x="90" y="50" />
            </Array>
          </mxGeometry>
        </mxCell>
        <mxCell id="9Cuw3_5VtuvsZnifVFAw-29" value="No" style="edgeLabel;html=1;align=center;verticalAlign=middle;resizable=0;points=[];" parent="9Cuw3_5VtuvsZnifVFAw-28" vertex="1" connectable="0">
          <mxGeometry x="-0.7419" relative="1" as="geometry">
            <mxPoint as="offset" />
          </mxGeometry>
        </mxCell>
        <mxCell id="9Cuw3_5VtuvsZnifVFAw-30" value="&lt;font style=&quot;font-size: 11px;&quot;&gt;Check if all &lt;br&gt;the details are filled in template &lt;/font&gt;" style="rhombus;whiteSpace=wrap;html=1;" parent="9Cuw3_5VtuvsZnifVFAw-16" vertex="1">
          <mxGeometry x="190" y="75" width="100" height="90" as="geometry" />
        </mxCell>
        <mxCell id="9Cuw3_5VtuvsZnifVFAw-57" style="edgeStyle=orthogonalEdgeStyle;rounded=0;orthogonalLoop=1;jettySize=auto;html=1;" parent="9Cuw3_5VtuvsZnifVFAw-16" edge="1">
          <mxGeometry relative="1" as="geometry">
            <mxPoint x="130" y="320" as="targetPoint" />
            <Array as="points">
              <mxPoint x="130" y="380" />
            </Array>
            <mxPoint x="331.1111111111113" y="380" as="sourcePoint" />
          </mxGeometry>
        </mxCell>
        <mxCell id="9Cuw3_5VtuvsZnifVFAw-58" value="No" style="edgeLabel;html=1;align=center;verticalAlign=middle;resizable=0;points=[];" parent="9Cuw3_5VtuvsZnifVFAw-57" vertex="1" connectable="0">
          <mxGeometry x="-0.4295" y="-1" relative="1" as="geometry">
            <mxPoint x="-1" as="offset" />
          </mxGeometry>
        </mxCell>
        <mxCell id="9Cuw3_5VtuvsZnifVFAw-41" style="edgeStyle=orthogonalEdgeStyle;rounded=0;orthogonalLoop=1;jettySize=auto;html=1;" parent="9Cuw3_5VtuvsZnifVFAw-16" edge="1">
          <mxGeometry relative="1" as="geometry">
            <mxPoint x="130" y="380" as="targetPoint" />
            <Array as="points">
              <mxPoint x="130" y="600" />
            </Array>
            <mxPoint x="342.5" y="600" as="sourcePoint" />
          </mxGeometry>
        </mxCell>
        <mxCell id="9Cuw3_5VtuvsZnifVFAw-42" value="No" style="edgeLabel;html=1;align=center;verticalAlign=middle;resizable=0;points=[];" parent="9Cuw3_5VtuvsZnifVFAw-41" vertex="1" connectable="0">
          <mxGeometry x="-0.3455" y="4" relative="1" as="geometry">
            <mxPoint as="offset" />
          </mxGeometry>
        </mxCell>
        <mxCell id="9Cuw3_5VtuvsZnifVFAw-48" style="edgeStyle=orthogonalEdgeStyle;rounded=0;orthogonalLoop=1;jettySize=auto;html=1;" parent="9Cuw3_5VtuvsZnifVFAw-16" edge="1">
          <mxGeometry relative="1" as="geometry">
            <mxPoint x="130" y="600" as="targetPoint" />
            <mxPoint x="330" y="830" as="sourcePoint" />
          </mxGeometry>
        </mxCell>
        <mxCell id="9Cuw3_5VtuvsZnifVFAw-49" value="No" style="edgeLabel;html=1;align=center;verticalAlign=middle;resizable=0;points=[];" parent="9Cuw3_5VtuvsZnifVFAw-48" vertex="1" connectable="0">
          <mxGeometry x="-0.4858" relative="1" as="geometry">
            <mxPoint as="offset" />
          </mxGeometry>
        </mxCell>
        <mxCell id="9Cuw3_5VtuvsZnifVFAw-31" value="" style="swimlane;swimlaneHead=0;swimlaneBody=0;fontStyle=1;strokeColor=inherit;connectable=0;fillColor=none;startSize=40;collapsible=0;recursiveResize=0;expand=0;" parent="9Cuw3_5VtuvsZnifVFAw-3" vertex="1">
          <mxGeometry x="510" width="160" height="1010" as="geometry">
            <mxRectangle width="160" height="1010" as="alternateBounds" />
          </mxGeometry>
        </mxCell>
        <mxCell id="9Cuw3_5VtuvsZnifVFAw-32" value="" style="edgeStyle=orthogonalEdgeStyle;rounded=0;orthogonalLoop=1;jettySize=auto;html=1;" parent="9Cuw3_5VtuvsZnifVFAw-31" source="9Cuw3_5VtuvsZnifVFAw-33" target="9Cuw3_5VtuvsZnifVFAw-36" edge="1">
          <mxGeometry relative="1" as="geometry" />
        </mxCell>
        <mxCell id="9Cuw3_5VtuvsZnifVFAw-33" value="Request Approval to IT Regional Manager" style="rounded=1;whiteSpace=wrap;html=1;" parent="9Cuw3_5VtuvsZnifVFAw-31" vertex="1">
          <mxGeometry x="20" y="180" width="120" height="60" as="geometry" />
        </mxCell>
        <mxCell id="9Cuw3_5VtuvsZnifVFAw-34" value="" style="edgeStyle=orthogonalEdgeStyle;rounded=0;orthogonalLoop=1;jettySize=auto;html=1;" parent="9Cuw3_5VtuvsZnifVFAw-31" source="9Cuw3_5VtuvsZnifVFAw-36" target="9Cuw3_5VtuvsZnifVFAw-38" edge="1">
          <mxGeometry relative="1" as="geometry" />
        </mxCell>
        <mxCell id="9Cuw3_5VtuvsZnifVFAw-35" value="Yes" style="edgeLabel;html=1;align=center;verticalAlign=middle;resizable=0;points=[];" parent="9Cuw3_5VtuvsZnifVFAw-34" vertex="1" connectable="0">
          <mxGeometry x="-0.24" y="2" relative="1" as="geometry">
            <mxPoint as="offset" />
          </mxGeometry>
        </mxCell>
        <mxCell id="9Cuw3_5VtuvsZnifVFAw-36" value="If Approved?" style="rhombus;whiteSpace=wrap;html=1;" parent="9Cuw3_5VtuvsZnifVFAw-31" vertex="1">
          <mxGeometry x="25" y="340" width="110" height="90" as="geometry" />
        </mxCell>
        <mxCell id="9Cuw3_5VtuvsZnifVFAw-37" value="" style="edgeStyle=orthogonalEdgeStyle;rounded=0;orthogonalLoop=1;jettySize=auto;html=1;" parent="9Cuw3_5VtuvsZnifVFAw-31" source="9Cuw3_5VtuvsZnifVFAw-38" target="9Cuw3_5VtuvsZnifVFAw-43" edge="1">
          <mxGeometry relative="1" as="geometry" />
        </mxCell>
        <mxCell id="9Cuw3_5VtuvsZnifVFAw-38" value="&amp;nbsp;Request Approval to Infosec (TRM)" style="rounded=1;whiteSpace=wrap;html=1;" parent="9Cuw3_5VtuvsZnifVFAw-31" vertex="1">
          <mxGeometry x="20" y="480" width="120" height="60" as="geometry" />
        </mxCell>
        <mxCell id="9Cuw3_5VtuvsZnifVFAw-39" value="" style="edgeStyle=orthogonalEdgeStyle;rounded=0;orthogonalLoop=1;jettySize=auto;html=1;" parent="9Cuw3_5VtuvsZnifVFAw-31" source="9Cuw3_5VtuvsZnifVFAw-43" target="9Cuw3_5VtuvsZnifVFAw-45" edge="1">
          <mxGeometry relative="1" as="geometry" />
        </mxCell>
        <mxCell id="9Cuw3_5VtuvsZnifVFAw-40" value="Yes" style="edgeLabel;html=1;align=center;verticalAlign=middle;resizable=0;points=[];" parent="9Cuw3_5VtuvsZnifVFAw-39" vertex="1" connectable="0">
          <mxGeometry x="-0.1765" relative="1" as="geometry">
            <mxPoint as="offset" />
          </mxGeometry>
        </mxCell>
        <mxCell id="9Cuw3_5VtuvsZnifVFAw-43" value="If Approved?" style="rhombus;whiteSpace=wrap;html=1;" parent="9Cuw3_5VtuvsZnifVFAw-31" vertex="1">
          <mxGeometry x="30" y="570" width="100" height="80" as="geometry" />
        </mxCell>
        <mxCell id="9Cuw3_5VtuvsZnifVFAw-44" value="" style="edgeStyle=orthogonalEdgeStyle;rounded=0;orthogonalLoop=1;jettySize=auto;html=1;entryX=0.5;entryY=0;entryDx=0;entryDy=0;" parent="9Cuw3_5VtuvsZnifVFAw-31" source="9Cuw3_5VtuvsZnifVFAw-45" target="9Cuw3_5VtuvsZnifVFAw-50" edge="1">
          <mxGeometry relative="1" as="geometry">
            <mxPoint x="130" y="760" as="targetPoint" />
          </mxGeometry>
        </mxCell>
        <mxCell id="9Cuw3_5VtuvsZnifVFAw-45" value="&amp;nbsp;Request Approval to IT-GM" style="rounded=1;whiteSpace=wrap;html=1;" parent="9Cuw3_5VtuvsZnifVFAw-31" vertex="1">
          <mxGeometry x="20" y="690" width="120" height="60" as="geometry" />
        </mxCell>
        <mxCell id="9Cuw3_5VtuvsZnifVFAw-46" value="" style="edgeStyle=orthogonalEdgeStyle;rounded=0;orthogonalLoop=1;jettySize=auto;html=1;" parent="9Cuw3_5VtuvsZnifVFAw-31" source="9Cuw3_5VtuvsZnifVFAw-50" target="9Cuw3_5VtuvsZnifVFAw-51" edge="1">
          <mxGeometry relative="1" as="geometry" />
        </mxCell>
        <mxCell id="9Cuw3_5VtuvsZnifVFAw-47" value="Yes" style="edgeLabel;html=1;align=center;verticalAlign=middle;resizable=0;points=[];" parent="9Cuw3_5VtuvsZnifVFAw-46" vertex="1" connectable="0">
          <mxGeometry x="-0.1" y="3" relative="1" as="geometry">
            <mxPoint as="offset" />
          </mxGeometry>
        </mxCell>
        <mxCell id="9Cuw3_5VtuvsZnifVFAw-50" value="If Approved?" style="rhombus;whiteSpace=wrap;html=1;" parent="9Cuw3_5VtuvsZnifVFAw-31" vertex="1">
          <mxGeometry x="30" y="790" width="100" height="80" as="geometry" />
        </mxCell>
        <mxCell id="9Cuw3_5VtuvsZnifVFAw-51" value="Request Mail Support Team to create Login ID" style="rounded=0;whiteSpace=wrap;html=1;" parent="9Cuw3_5VtuvsZnifVFAw-31" vertex="1">
          <mxGeometry x="20" y="910" width="120" height="60" as="geometry" />
        </mxCell>
        <mxCell id="9Cuw3_5VtuvsZnifVFAw-52" value="" style="swimlane;swimlaneHead=0;swimlaneBody=0;fontStyle=1;strokeColor=inherit;connectable=0;fillColor=none;startSize=40;collapsible=0;recursiveResize=0;expand=0;" parent="9Cuw3_5VtuvsZnifVFAw-3" vertex="1">
          <mxGeometry x="670" width="150" height="1010" as="geometry">
            <mxRectangle width="150" height="1010" as="alternateBounds" />
          </mxGeometry>
        </mxCell>
        <mxCell id="9Cuw3_5VtuvsZnifVFAw-53" value="Create Login ID and Password and share to the Requester" style="rounded=0;whiteSpace=wrap;html=1;" parent="9Cuw3_5VtuvsZnifVFAw-52" vertex="1">
          <mxGeometry x="20" y="910" width="120" height="60" as="geometry" />
        </mxCell>
        <mxCell id="9Cuw3_5VtuvsZnifVFAw-55" style="edgeStyle=orthogonalEdgeStyle;rounded=0;orthogonalLoop=1;jettySize=auto;html=1;entryX=0;entryY=0.5;entryDx=0;entryDy=0;" parent="9Cuw3_5VtuvsZnifVFAw-3" source="9Cuw3_5VtuvsZnifVFAw-51" target="9Cuw3_5VtuvsZnifVFAw-53" edge="1">
          <mxGeometry relative="1" as="geometry" />
        </mxCell>
        <mxCell id="9Cuw3_5VtuvsZnifVFAw-56" style="edgeStyle=orthogonalEdgeStyle;rounded=0;orthogonalLoop=1;jettySize=auto;html=1;entryX=0.5;entryY=0;entryDx=0;entryDy=0;" parent="9Cuw3_5VtuvsZnifVFAw-3" source="9Cuw3_5VtuvsZnifVFAw-27" target="9Cuw3_5VtuvsZnifVFAw-10" edge="1">
          <mxGeometry relative="1" as="geometry">
            <Array as="points">
              <mxPoint x="80" y="310" />
            </Array>
          </mxGeometry>
        </mxCell>
        <mxCell id="9Cuw3_5VtuvsZnifVFAw-59" style="edgeStyle=orthogonalEdgeStyle;rounded=0;orthogonalLoop=1;jettySize=auto;html=1;entryX=0;entryY=0.5;entryDx=0;entryDy=0;" parent="9Cuw3_5VtuvsZnifVFAw-3" source="9Cuw3_5VtuvsZnifVFAw-26" target="9Cuw3_5VtuvsZnifVFAw-33" edge="1">
          <mxGeometry relative="1" as="geometry">
            <Array as="points">
              <mxPoint x="520" y="320" />
              <mxPoint x="520" y="210" />
            </Array>
          </mxGeometry>
        </mxCell>
        <mxCell id="9Cuw3_5VtuvsZnifVFAw-60" value="Yes" style="edgeLabel;html=1;align=center;verticalAlign=middle;resizable=0;points=[];" parent="9Cuw3_5VtuvsZnifVFAw-59" vertex="1" connectable="0">
          <mxGeometry x="0.0714" y="2" relative="1" as="geometry">
            <mxPoint as="offset" />
          </mxGeometry>
        </mxCell>
        <mxCell id="9Cuw3_5VtuvsZnifVFAw-61" style="edgeStyle=orthogonalEdgeStyle;rounded=0;orthogonalLoop=1;jettySize=auto;html=1;entryX=0.66;entryY=1;entryDx=0;entryDy=0;entryPerimeter=0;" parent="9Cuw3_5VtuvsZnifVFAw-3" source="9Cuw3_5VtuvsZnifVFAw-53" target="9Cuw3_5VtuvsZnifVFAw-19" edge="1">
          <mxGeometry relative="1" as="geometry">
            <Array as="points">
              <mxPoint x="760" y="990" />
              <mxPoint x="309" y="990" />
            </Array>
          </mxGeometry>
        </mxCell>
        <mxCell id="9Cuw3_5VtuvsZnifVFAw-69" value="" style="edgeStyle=orthogonalEdgeStyle;rounded=0;orthogonalLoop=1;jettySize=auto;html=1;" parent="9Cuw3_5VtuvsZnifVFAw-3" source="9Cuw3_5VtuvsZnifVFAw-68" target="9Cuw3_5VtuvsZnifVFAw-19" edge="1">
          <mxGeometry relative="1" as="geometry" />
        </mxCell>
        <mxCell id="9Cuw3_5VtuvsZnifVFAw-62" value="&lt;b&gt;OPERATIONS TEAM&lt;/b&gt;" style="rounded=0;whiteSpace=wrap;html=1;fillColor=#bac8d3;strokeColor=#23445d;" parent="1" vertex="1">
          <mxGeometry x="-15620" y="-10850" width="310" height="40" as="geometry" />
        </mxCell>
        <mxCell id="9Cuw3_5VtuvsZnifVFAw-63" value="&lt;b&gt;IT-INFRA&lt;/b&gt;" style="rounded=0;whiteSpace=wrap;html=1;fillColor=#bac8d3;strokeColor=#23445d;" parent="1" vertex="1">
          <mxGeometry x="-15310" y="-10850" width="160" height="40" as="geometry" />
        </mxCell>
        <mxCell id="9Cuw3_5VtuvsZnifVFAw-64" value="&lt;b&gt;IT MAIL SUPPORT&lt;/b&gt;" style="rounded=0;whiteSpace=wrap;html=1;fillColor=#bac8d3;strokeColor=#23445d;" parent="1" vertex="1">
          <mxGeometry x="-15150" y="-10850" width="150" height="40" as="geometry" />
        </mxCell>
      </root>
    </mxGraphModel>
  </diagram>
</mxfile>
